<svg width="20" height="20" viewBox="0 0 20 20" fill="none" xmlns="http://www.w3.org/2000/svg">
<g clip-path="url(#clip0_602_504)">
<path d="M8.26233 11.6337H3.5353C3.38176 11.6337 3.25751 11.5094 3.25751 11.3559C3.25751 11.2023 3.38176 11.0781 3.5353 11.0781H8.26233C8.41587 11.0781 8.54012 11.2023 8.54012 11.3559C8.54012 11.5094 8.41587 11.6337 8.26233 11.6337ZM19.5426 4.9583L15.7062 8.79737V13.7922C15.7062 14.6961 14.971 15.4313 14.0671 15.4313H7.14547L5.87833 17.2513C5.68898 17.5264 5.37511 17.6913 5.03927 17.6913C4.70342 17.6913 4.38928 17.5258 4.19912 17.2497L2.93279 15.4313H1.63907C0.735166 15.4313 0 14.6961 0 13.7922V5.98102C0 5.07712 0.735166 4.34196 1.63907 4.34196H14.0671C14.5189 4.34196 14.9339 4.53016 15.2382 4.84766L17.3355 2.75091C17.9263 2.16061 18.954 2.1617 19.5426 2.75091C19.8378 3.04552 20 3.43752 20 3.85447C20 4.2717 19.8378 4.66369 19.5426 4.9583ZM15.1506 9.35312L12.79 11.7145C12.6353 11.8689 12.4557 11.9909 12.2561 12.0777L10.7789 12.7177C10.7784 12.7179 10.7781 12.7183 10.7776 12.7185C10.7773 12.7186 10.7769 12.7186 10.7766 12.7187L9.89597 13.1002C9.82652 13.13 9.75382 13.1447 9.6822 13.1447C9.54331 13.1447 9.40767 13.0904 9.30512 12.9873C9.14887 12.8308 9.10546 12.5989 9.1939 12.3962L10.221 10.0396C10.3067 9.84213 10.4282 9.66363 10.5812 9.50954L11.3966 8.69326H3.5353C3.38175 8.69326 3.25751 8.56902 3.25751 8.41547C3.25751 8.26193 3.38175 8.13768 3.5353 8.13768H11.9516L14.8461 5.24016C14.6447 5.02768 14.3641 4.89753 14.0671 4.89753H1.63907C1.04171 4.89753 0.555581 5.38366 0.555581 5.98102V13.7922C0.555581 14.3896 1.04171 14.8757 1.63907 14.8757H3.07793C3.1688 14.8757 3.25398 14.9202 3.3058 14.9948L4.65595 16.9336C4.74466 17.0625 4.88383 17.1357 5.039 17.1357C5.19417 17.1357 5.33388 17.0625 5.4215 16.9347L6.77247 14.9948C6.82428 14.9202 6.90946 14.8757 7.00034 14.8757H14.0671C14.6645 14.8757 15.1506 14.3896 15.1506 13.7922L15.1506 9.35312ZM11.9182 11.6202L10.6784 10.3804L10.1944 11.4907C10.3221 11.5674 10.442 11.6522 10.5411 11.7511C10.6517 11.8616 10.7388 11.9864 10.8145 12.1175L11.9182 11.6202ZM9.70282 12.6184L10.3101 12.3448C10.2642 12.2734 10.2108 12.206 10.1488 12.1439C10.097 12.0926 10.0366 12.0453 9.97172 12.0016L9.70282 12.6184ZM18.4152 5.30201L17.5468 4.43067L16.9933 3.87712L10.9801 9.89652L12.4011 11.3175L18.4152 5.30201ZM19.4444 3.85447C19.4444 3.58618 19.3397 3.33362 19.1498 3.14372C18.77 2.76393 18.1081 2.76339 17.7283 3.14372L17.3881 3.48424L17.9796 4.07777L18.8085 4.90676L19.1498 4.56549C19.3397 4.3756 19.4444 4.12304 19.4444 3.85447Z" fill="#44465A"/>
</g>
<defs>
<clipPath id="clip0_602_504">
<rect width="20" height="20" fill="white"/>
</clipPath>
</defs>
</svg>
