<svg width="20" height="20" viewBox="0 0 20 20" fill="none" xmlns="http://www.w3.org/2000/svg">
<g clip-path="url(#clip0_486_912)">
<path fill-rule="evenodd" clip-rule="evenodd" d="M0.805456 2.47196C1.32118 1.95624 2.02065 1.6665 2.75 1.6665H9.16667C9.67293 1.6665 10.0833 2.07691 10.0833 2.58317C10.0833 3.08943 9.67293 3.49984 9.16667 3.49984H2.75C2.50688 3.49984 2.27373 3.59641 2.10182 3.76832C1.92991 3.94023 1.83333 4.17339 1.83333 4.4165V17.2498C1.83333 17.493 1.92991 17.7261 2.10182 17.898C2.27373 18.0699 2.50689 18.1665 2.75 18.1665H15.5833C15.8264 18.1665 16.0596 18.0699 16.2315 17.898C16.4034 17.7261 16.5 17.493 16.5 17.2498V10.8332C16.5 10.3269 16.9104 9.9165 17.4167 9.9165C17.9229 9.9165 18.3333 10.3269 18.3333 10.8332V17.2498C18.3333 17.9792 18.0436 18.6787 17.5279 19.1944C17.0122 19.7101 16.3127 19.9998 15.5833 19.9998H2.75C2.02065 19.9998 1.32118 19.7101 0.805456 19.1944C0.289731 18.6787 0 17.9792 0 17.2498V4.4165C0 3.68716 0.289731 2.98769 0.805456 2.47196Z" fill="#FE8903"/>
<path fill-rule="evenodd" clip-rule="evenodd" d="M17.2578 1.7575C16.9964 1.7575 16.7458 1.86132 16.561 2.04611L8.38499 10.2221L7.92048 12.0802L9.7785 11.6157L17.9545 3.43962C18.1393 3.25483 18.2431 3.0042 18.2431 2.74287C18.2431 2.48153 18.1393 2.2309 17.9545 2.04611C17.7697 1.86132 17.5191 1.7575 17.2578 1.7575ZM15.3183 0.803367C15.8327 0.28898 16.5303 0 17.2578 0C17.9852 0 18.6829 0.28898 19.1973 0.803367C19.7117 1.31775 20.0007 2.01541 20.0007 2.74287C20.0007 3.47032 19.7117 4.16798 19.1973 4.68237L10.8491 13.0305C10.7365 13.1431 10.5954 13.223 10.4409 13.2617L6.92588 14.1404C6.62643 14.2153 6.30965 14.1275 6.09138 13.9093C5.87312 13.691 5.78538 13.3742 5.86024 13.0748L6.73899 9.55976C6.77762 9.40524 6.85752 9.26413 6.97014 9.15152L15.3183 0.803367Z" fill="#FE8903"/>
</g>
<defs>
<clipPath id="clip0_486_912">
<rect width="20" height="20" fill="white"/>
</clipPath>
</defs>
</svg>
